<svg xmlns="http://www.w3.org/2000/svg" xmlns:xlink="http://www.w3.org/1999/xlink" version="1.1" x="0px" y="0px" viewBox="0 0 68 85" enable-background="new 0 0 68 68" xml:space="preserve"><g><path d="M2,43.3c0,0.5,0.4,0.9,0.9,1c3.8,0.4,8.2-0.1,12-0.6c6.8,6.2,14.1,11.9,21.5,11.7c10.5,1.1,25.4-12,27.5-4.3   c0.1,0.4,0.4,0.7,0.9,0.7c0.4,0,0.8-0.2,1-0.5C68,47,57.5,42.8,51,37c-0.2-12-8.9-21.9-19.5-24c-1.8-0.4-5.4-0.8-7.1-0.4   C11.9,13.8,2,24.5,2,37.5V43.3z M60.7,46.6c-6.2,0-14,6.5-24.3,6.8c-6.3,0.2-13-4.8-19-10.1c11.9-1.9,24.6-5.5,32.1-4.8   C53,41.6,57.4,44.1,60.7,46.6z M22.5,15.9c1.2-1.3,2.3-1.3,3.9-1.3c1.5,0,2.9,0.1,4.4,0.4c6.3,4.5,10.6,12.5,11.6,21.7   c-6.5,0.8-14.2,2.6-22,4C18.6,28.2,19.4,19.2,22.5,15.9z M48.9,36.4c-1.6-0.1-3,0-4.5,0.1c-0.9-7.9-4-15-8.7-19.9   C43.2,20,48.5,27.6,48.9,36.4z M4,37.5C4,27,10.9,18.2,20.3,15.4c-3.8,5.3-3.2,16.5-1.9,25.6c-1,0.2-2,0.3-3,0.5   c-0.3-0.1-0.6,0-0.8,0.1c-3.4,0.5-7.2,0.9-10.6,0.6C4,42.2,4,37.5,4,37.5z"/></g><text x="0" y="83" fill="#000000" font-size="5px" font-weight="bold" font-family="'Helvetica Neue', Helvetica, Arial-Unicode, Arial, Sans-serif">Created by ProSymbols</text><text x="0" y="88" fill="#000000" font-size="5px" font-weight="bold" font-family="'Helvetica Neue', Helvetica, Arial-Unicode, Arial, Sans-serif">from the Noun Project</text></svg>