<svg xmlns="http://www.w3.org/2000/svg" version="1.1" viewBox="-5.0 -10.0 110.0 135.0">
 <path d="m99.148 51.719h0.18359c-2.1719-4.9414-5.0312-5.6055-9.8867-6.8398v0.011719c-5.7031-1.5781-11.668-2.0039-17.559-2.4648l-14.555-8.7422c-1.75-1.0547-3.7578-1.6094-5.8008-1.6094l-18.695-0.003907c-1.5078 0-2.9805 0.29688-4.375 0.88281l-15.723 6.625c-0.097656 0.042969-0.20703 0.070313-0.32422 0.078125l-2.9766 0.28125-1.418-2.0859c-0.75-0.23828-4.7734-1.2852-5.3555-1.6953-0.96875-0.48047-2.1992 0.30859-2.168 1.3906v0.79688l1.082 2.2695h2.4297l0.023438 0.050781c-1.4375 0.58594-2.4844 1.8633-2.75 3.4219l-0.070312-0.003907v11.094l0.089843 0.023438c0.12109 0.88672 0.84766 1.8477 1.3242 2.582 0.50781 0.78516 1.2734 1.375 2.1562 1.6641l7.5156 2.4844c2.2266 7.2695 12.445 8.168 15.91 1.3984l45.664 0.011719c3.082 6.1172 12.215 6.1133 15.297 0h6.0312c2.0234 0 3.7148-1.4141 4.1602-3.3047l0.12109-0.003906c-0.082031-1.668 0.24219-6.7812-0.33203-8.3125zm-96.293-13.121-0.085938-0.17969 0.57031 0.17969zm92.551 10.801c0.097656 0.09375 0.19531 0.20312 0.28906 0.30469h-1.5703c-1.293 0-2.375-0.92578-2.6133-2.1523 1.3984 0.36719 2.875 0.80469 3.8945 1.8477zm-92.18-3.3008h0.77344c0.042969 0 0.078125 0.035156 0.078125 0.078125v2.4141c0.046875 0.14453-0.66016 0.054687-0.85156 0.078125zm8.6641 13.578-6.4805-2.1445c-0.78906-0.19922-1.2578-1.0898-1.6641-1.7188l0.125 0.03125 6.8867 1.7266c0.058594 0.007813 1.1719 0.16797 1.2656 0.18359-0.10156 0.63281-0.16016 1.2773-0.13281 1.9219zm8.6602 6.2539c-7.7656-0.125-9.1133-10.941-1.6367-13.066 9.6953-1.8438 11.516 12.523 1.6367 13.066zm3.0508-14.742-0.8125-2.4141 2.9453-4.6172 2.9023 0.60156 16.188 0.011719v9.6992l2.1562 3.832c-0.25-0.035156-18.316 0.13281-17.844-0.19531-0.42578-3.1289-2.6094-5.832-5.5352-6.918zm0.046876-11.148 6.5977-2.7812-2.0312 5.3516-2.4609-0.50781zm6.6602 2.7227 2.2891-6.0234c0.078125-0.003906 0.16016-0.007812 0.23828-0.007812h11.988v6.0312zm32.941 2.0156 4.7031 3.2852 1.0156 10.234h-19.676l-2.4531-4.3594v-9.1719zm-16.41-2.0156v-6.0312h4.6953c1.1953 0 2.3711 0.32812 3.4023 0.94531l8.6367 5.0898zm-17.855 18.559c0.074219-0.39062 0.15625-0.78125 0.19531-1.1797l1.1602 0.16016 42.566 0.011719c0.054688 0.33594 0.10938 0.67578 0.17969 1.0117zm52.531 4.6367c-3.5938 0.058594-6.7109-3.0586-6.6523-6.6523 0.3125-8.8086 12.996-8.8047 13.305 0 0.0625 3.5938-3.0586 6.7109-6.6523 6.6523zm13.68-4.6328h-5.2461c0.066406-0.33594 0.12109-0.67578 0.17969-1.0117 0.85547 0.042969 6.1055-0.17188 7.0781-0.20312-0.38281 0.72266-1.1406 1.2148-2.0117 1.2148zm2.2695-3.2383c-0.97266 0.027343-6.5 0.25781-7.3359 0.21484-1.5234-10.137-15.691-10.125-17.219 0h-1.9102l-1.1289-11.359-4.5898-3.2031c0.54297-0.89453 0.19922-2.0938-0.69922-2.6211l-8.6094-5.168c-1.3477-0.80469-2.8789-1.2305-4.4375-1.2305l-18.699-0.003906c-1.1758 0.003906-2.2734 0.23047-3.3516 0.67578l-7.0664 2.9805c-1.0898 0.42188-1.3906 1.9727-0.52734 2.7656l2.0781 2.0352-3.3945 5.3242 0.73047 2.1719c-3.625-0.34766-7.1953 1.832-8.6797 5.1328-0.78125 0.058594-8.4453-1.9805-9.3984-2.1992v-2.9258h0.77344c1.1523 0 2.0938-0.9375 2.0938-2.0938v-2.4141c-0.019531-1.5117-1.3438-2.2578-2.7383-2.0938 0.30078-0.94531 1.1289-1.6562 2.168-1.7539l1.5-0.14062c0.78516-0.13281 5.9336-0.40625 6.5078-0.75781l15.707-6.6172c1.1484-0.48047 2.3594-0.72656 3.5938-0.72656h18.699c1.6797 0 3.3242 0.45703 4.7617 1.3203l14.559 8.7461c0.44531 0.26172 0.95313 0.41016 1.4688 0.42188 5.8047 0.14453 11.555 0.93359 17.121 2.3984-0.039062 2.6016 2.0742 4.75 4.6797 4.7461h2.8984c0.70703 1.4141 0.37109 4.832 0.44531 6.375zm-76.914-3.7461c-6.5625 0.20703-6.5625 9.7266 0 9.9336 6.5625-0.21094 6.5625-9.7266 0-9.9336zm0 7.9141c-3.8945-0.10156-3.8906-5.8008 0-5.9023 3.8906 0.10547 3.8906 5.8008 0 5.9023zm60.965-7.9141c-6.5625 0.20703-6.5625 9.7266 0 9.9336 6.5625-0.21094 6.5625-9.7266 0-9.9336zm0 7.9141c-3.8945-0.10156-3.8906-5.8008 0-5.9023 3.8906 0.10547 3.8906 5.8008 0 5.9023z"/>
<text x="0.0" y="117.5" font-size="5.0" font-weight="bold" font-family="Arbeit Regular, Helvetica, Arial-Unicode, Arial, Sans-serif" fill="#000000">Created by karyative</text><text x="0.0" y="122.5" font-size="5.0" font-weight="bold" font-family="Arbeit Regular, Helvetica, Arial-Unicode, Arial, Sans-serif" fill="#000000">from Noun Project</text></svg>