<svg xmlns="http://www.w3.org/2000/svg" version="1.1" viewBox="-5.0 -10.0 110.0 135.0">
 <path d="m39.141 52.273c1.7148 0 3.3047 0.53906 4.6094 1.457v-17.477c0-0.82031 0.58203-1.5078 1.3555-1.6719l13.379-3.5859c0.91016-0.24219 1.8438 0.29688 2.0859 1.207 0.24219 0.91016-0.29687 1.8438-1.207 2.0859l-12.199 3.2695v3.1133l14.93-4v-0.53906c0-0.94141 0.76562-1.707 1.707-1.707 0.94141 0 1.707 0.76562 1.707 1.707v19.25c0 4.4297-3.5938 8.0234-8.0234 8.0234s-8.0234-3.5938-8.0234-8.0234c0-6.5 7.3477-10.281 12.629-6.5664v-8.6133l-14.93 4v16.094c0 4.4297-3.5938 8.0234-8.0234 8.0234-4.4297 0-8.0234-3.5938-8.0234-8.0234 0.003907-4.4297 3.5977-8.0234 8.0273-8.0234zm54.32-6.7656c0-0.94141 0.76562-1.707 1.707-1.707 0.94141 0 1.707 0.76562 1.707 1.707v11.965c0 0.94141-0.76562 1.707-1.707 1.707-0.94141 0-1.707-0.76563-1.707-1.707zm-90.336 0c0-0.94141 0.76562-1.707 1.707-1.707 0.94141 0 1.707 0.76562 1.707 1.707v11.965c0 0.94141-0.76562 1.707-1.707 1.707-0.94141 0-1.707-0.76563-1.707-1.707zm57.855-32.359v5.1836c-2.9219-1.0469-6.0352-1.6875-9.2773-1.8555l0.003906-9.9531c0-0.94141-0.76562-1.707-1.707-1.707s-1.707 0.76562-1.707 1.707v9.9531c-3.2383 0.16797-6.3555 0.80859-9.2773 1.8555v-5.1875c0-0.94141-0.76562-1.707-1.707-1.707s-1.707 0.76562-1.707 1.707v6.6328c-3.5078 1.7305-6.6484 4.0703-9.3047 6.8906l0.019531-4.0977c0.003906-0.9375-0.75391-1.7031-1.6914-1.707-0.9375-0.003906-1.7031 0.75391-1.707 1.6914l-0.042969 8.4219c-3.4258 5.1523-5.4219 11.34-5.4219 17.988 0 6.6523 1.9961 12.836 5.4219 17.988l0.042969 8.4219c0.003906 0.9375 0.76953 1.6953 1.707 1.6914s1.6953-0.76562 1.6914-1.707l-0.019531-4.0977c2.6562 2.8242 5.7969 5.1602 9.3047 6.8906v6.6328c0 0.94141 0.76563 1.707 1.707 1.707s1.707-0.76563 1.707-1.707v-5.1875c2.9219 1.0469 6.0352 1.6875 9.2773 1.8555v12.008c0 0.94141 0.76562 1.707 1.707 1.707s1.707-0.76562 1.707-1.707v-12.008c3.2383-0.16797 6.3555-0.80859 9.2773-1.8555v5.1836c0 0.94141 0.76562 1.707 1.707 1.707s1.707-0.76562 1.707-1.707v-6.6328c3.5078-1.7305 6.6484-4.0703 9.3047-6.8945l-0.023437 4.0977c-0.003907 0.9375 0.75391 1.7031 1.6914 1.707s1.7031-0.75391 1.707-1.6914l0.046875-8.4219c3.4258-5.1523 5.418-11.336 5.418-17.988 0-6.6523-1.9961-12.836-5.4219-17.988l-0.042969-8.4219c-0.003906-0.9375-0.76953-1.6953-1.707-1.6914-0.9375 0.003906-1.6953 0.76953-1.6914 1.707l0.019531 4.0977c-2.6562-2.8242-5.7969-5.1602-9.3047-6.8906v-6.6211c0-0.94141-0.76562-1.707-1.707-1.707s-1.707 0.76172-1.707 1.707zm25.379 28.641c0-0.94141 0.76562-1.707 1.707-1.707s1.707 0.76562 1.707 1.707v19.406c0 0.94141-0.76563 1.707-1.707 1.707s-1.707-0.76562-1.707-1.707zm-76.133 0c0-0.94141 0.76563-1.707 1.707-1.707s1.707 0.76562 1.707 1.707v19.406c0 0.94141-0.76562 1.707-1.707 1.707s-1.707-0.76562-1.707-1.707zm60.371-13.414c-8.5234-8.5234-21.5-10.965-32.582-5.9609-10.262 4.6367-17.145 14.906-17.145 26.559 0 16.23 13.176 29.129 29.129 29.129 15.855 0 29.129-12.812 29.129-29.129 0-8.043-3.2617-15.324-8.5312-20.598zm-9.8555 23.746c-2.8945-2.8945-7.8672-0.83594-7.8672 3.2578s4.9727 6.1562 7.8672 3.2578c1.8008-1.7969 1.8008-4.7148 0-6.5156zm2.7695-18.941 0.72656-0.19531c0.91016-0.24219 1.4492-1.1758 1.207-2.0859-0.24219-0.91016-1.1758-1.4492-2.0859-1.207l-0.72656 0.19531c-0.91016 0.24219-1.4492 1.1758-1.207 2.0859 0.24219 0.91016 1.1758 1.4492 2.0859 1.207zm-21.113 23.855c-2.8945-2.8945-7.8672-0.83594-7.8672 3.2578s4.9727 6.1562 7.8672 3.2578c1.8008-1.7969 1.8008-4.7148 0-6.5156z" fill-rule="evenodd"/>
<text x="0.0" y="117.5" font-size="5.0" font-weight="bold" font-family="Arbeit Regular, Helvetica, Arial-Unicode, Arial, Sans-serif" fill="#000000">Created by adi_sena</text><text x="0.0" y="122.5" font-size="5.0" font-weight="bold" font-family="Arbeit Regular, Helvetica, Arial-Unicode, Arial, Sans-serif" fill="#000000">from Noun Project</text></svg>