<?xml version="1.0" encoding="UTF-8" standalone="no"?>
<svg
   data-name="Livello 1"
   viewBox="0 0 100 125"
   x="0px"
   y="0px"
   version="1.1"
   id="svg4"
   sodipodi:docname="pinguin-white.svg"
   inkscape:version="1.3.2 (091e20e, 2023-11-25, custom)"
   xmlns:inkscape="http://www.inkscape.org/namespaces/inkscape"
   xmlns:sodipodi="http://sodipodi.sourceforge.net/DTD/sodipodi-0.dtd"
   xmlns="http://www.w3.org/2000/svg"
   xmlns:svg="http://www.w3.org/2000/svg">
  <defs
     id="defs4" />
  <sodipodi:namedview
     id="namedview4"
     pagecolor="#ffffff"
     bordercolor="#000000"
     borderopacity="0.25"
     inkscape:showpageshadow="2"
     inkscape:pageopacity="0.0"
     inkscape:pagecheckerboard="0"
     inkscape:deskcolor="#d1d1d1"
     inkscape:zoom="7.32"
     inkscape:cx="50"
     inkscape:cy="62.5"
     inkscape:window-width="1920"
     inkscape:window-height="1171"
     inkscape:window-x="-9"
     inkscape:window-y="-9"
     inkscape:window-maximized="1"
     inkscape:current-layer="svg4" />
  <path
     d="m 71.170037,54.990628 a 77.83,77.83 0 0 0 -6.91,-20.52 34.48,34.48 0 0 0 -6.13,-8.39 c -2.61,-2.58 -5.87,-5.08 -9.62,-5.52 -3.92,-0.46 -7.42,1.75 -9.62,4.85 -2.52,3.56 -2.84,7.75 -3.25,11.93 l -1.11,0.18 a 5.18,5.18 0 0 0 -1.68,0.5 2.6,2.6 0 0 0 -0.73,3.85 8.61,8.61 0 0 0 2.81,2.34 87.33,87.33 0 0 0 -5,15.9 119.26,119.26 0 0 0 -2.64,16.9 77.85,77.85 0 0 0 -0.29,8.22 c 0.08,2.41 0.48,4.93 2.05,6.85 a 8.85,8.85 0 0 0 1.18,1.19 15.92,15.92 0 0 0 -3.35,5.56 1,1 0 0 0 1.23,1.230002 l 1.89,-0.680002 a 12.36,12.36 0 0 0 1.88,-0.67 c 0,0.1 0,0.2 0,0.23 a 7.79,7.79 0 0 0 -0.24,1.440002 2,2 0 0 0 0.52,1.39 1.33,1.33 0 0 0 1.66,0.22 5.63,5.63 0 0 0 1.5,-0.93 3.08,3.08 0 0 0 3.78,0.41 4.44,4.44 0 0 0 1.78,-2.460002 7.08,7.08 0 0 0 0.29,-1.82 l 1.24,0.19 a 52.51,52.51 0 0 0 6.05,0.48 12.37,12.37 0 0 0 -0.7,2.880002 3.22,3.22 0 0 0 0.21,2 1.53,1.53 0 0 0 1.8,0.67 2.52,2.52 0 0 0 1.23,-1.26 c 0.23,-0.37 0.38,-0.49 0.78,-0.48 1,0 1.61,1.17 2.11,2 0.5,0.83 2.22,0.6 2.13,-0.57 0,-0.15 0,-0.17 0,-0.07 0,0.1 0,-0.06 0,-0.08 a 0.44,0.44 0 0 1 0.11,-0.12 0.61,0.61 0 0 1 0.55,-0.15 c 0.67,0.09 1.24,0.78 1.69,1.25 a 1.16,1.16 0 0 0 1.91,-0.5 7.63,7.63 0 0 0 -0.69,-6.670002 c 0.74,-0.17 1.47,-0.35 2.19,-0.57 a 1.71,1.71 0 0 0 0.39,-0.17 c 0.74,1.22 1.51,2.41 2.32,3.560002 a 1.4,1.4 0 0 0 2.4,0 c 7.45,-13.570002 7.36,-29.800002 4.28,-44.590002 z m -32.82,44.15 a 1.3,1.3 0 0 1 -1.06,0.590002 c -0.27,0 -0.63,-0.19 -0.65,-0.500002 a 1.06,1.06 0 0 0 -2,-0.53 4.46,4.46 0 0 1 -1,1.070002 c 0,-0.25 0.11,-0.500002 0.14,-0.760002 a 2.2,2.2 0 0 0 -0.65,-1.87 c -0.8,-0.68 -1.79,-0.23 -2.65,0 l -0.78,0.25 a 14.12,14.12 0 0 1 2.07,-2.85 1.3,1.3 0 0 0 0.1,-0.15 22,22 0 0 0 7,2.37 3.78,3.78 0 0 1 -0.52,2.38 z m 18,1.260002 a 3.06,3.06 0 0 0 -1.57,0.59 4.35,4.35 0 0 0 -1.39,-1.13 3.26,3.26 0 0 0 -3.39,0.2 2.16,2.16 0 0 0 -0.31,0.29 12.76,12.76 0 0 1 0.31,-2.470002 46,46 0 0 0 7.14,-0.64 1.25,1.25 0 0 0 0.09,0.25 6.64,6.64 0 0 1 1.13,2.630002 5.07,5.07 0 0 1 0,0.87 3.37,3.37 0 0 0 -1.99,-0.61 z m -11,-5.660002 a 46,46 0 0 1 -7.92,-1.08 11.45,11.45 0 0 1 -5.58,-2.56 c -1.7,-1.68 -2,-4 -2,-6.28 -0.05,-2.52 0,-5 0.13,-7.57 a 105.52,105.52 0 0 1 1.83,-15.66 c 0.77,-3.72 1.76,-7.35 2.85,-11 a 7.55,7.55 0 0 1 4.61,-1.66 9.75,9.75 0 0 1 6.16,2.29 16.8,16.8 0 0 1 4.41,5.26 28.3,28.3 0 0 1 1.67,3.73 23.73,23.73 0 0 0 0.8,2.43 65.57,65.57 0 0 0 8.27,30.64 53.73,53.73 0 0 1 -15.22,1.46 z m 24.88,-18.79 a 53.9,53.9 0 0 1 -4.74,20.19 60.66,60.66 0 0 1 -8.23,-18 66.53,66.53 0 0 1 -2,-22.13 c 0.12,-1.73 -2.48,-1.67 -2.67,0 -0.09,0.82 -0.16,1.63 -0.21,2.45 a 29.27,29.27 0 0 0 -1.48,-3.22 16.25,16.25 0 0 0 -5.18,-5.95 10.77,10.77 0 0 0 -10.46,-0.78 c 0.37,-1.2 0.75,-2.39 1.14,-3.59 a 13.09,13.09 0 0 0 2.5,0.76 1.25,1.25 0 1 0 0.66,-2.41 c -0.33,-0.08 -0.65,-0.17 -1,-0.28 l -0.42,-0.15 -0.26,-0.1 a 11.39,11.39 0 0 1 -1.66,-0.87 c -0.25,-0.15 -0.5,-0.31 -0.75,-0.49 l -0.29,-0.21 -0.34,-0.28 c -0.08,-0.08 -0.17,-0.15 -0.25,-0.24 -0.08,-0.09 -0.18,-0.23 -0.21,-0.25 v 0 a 2.1,2.1 0 0 1 0.24,-0.06 c 0.68,-0.13 1.39,-0.21 2.08,-0.31 l 2.2,-0.31 a 4.33,4.33 0 0 0 2.47,-0.74 1.36,1.36 0 0 0 -0.27,-2.11 2.47,2.47 0 0 0 -1.58,-0.16 l -1,0.16 -1.38,0.23 c 0.67,-3.2 1.58,-6.68 3.4,-9.38 1.63,-2.44 4.47,-4.53 7.54,-4.16 3.36,0.4 6.31,3 8.55,5.37 a 35.06,35.06 0 0 1 5.37,7.55 c 3.09,5.78 4.87,12.29 6.25,18.66 a 81.81,81.81 0 0 1 1.98,20.81 z"
     id="path1"
     style="fill:#ffffff" />
  <path
     d="m 43.260037,32.450628 a 1.12,1.12 0 0 0 -0.62,-0.34 2.36,2.36 0 0 0 -0.52,-0.09 1.66,1.66 0 0 0 -0.94,0.27 1.87,1.87 0 0 0 -0.56,0.56 1.57,1.57 0 0 0 -0.18,0.42 2,2 0 0 0 0,1 0.57,0.57 0 0 0 0,0.14 2.07,2.07 0 0 0 0.2,0.46 2.12,2.12 0 0 0 0.29,0.38 v 0 l 0.28,0.22 v 0 h 0.06 l 0.18,0.08 0.2,0.08 a 2.16,2.16 0 0 0 0.43,0.06 1.21,1.21 0 0 0 0.42,-0.05 1.39,1.39 0 0 0 0.62,-0.36 l 0.09,-0.11 h 0.08 a 1.63,1.63 0 0 0 0.39,-2.21 1.92,1.92 0 0 0 -0.42,-0.51 z"
     id="path2"
     style="fill:#ffffff" />
  <path
     d="m 51.840037,34.380628 h -0.09 c -0.11,-0.09 -0.22,-0.18 -0.34,-0.26 a 2,2 0 0 0 -0.52,-0.22 1.17,1.17 0 0 0 -0.27,0 1.42,1.42 0 0 0 -0.29,0 1.76,1.76 0 0 0 -0.83,0.23 v 0 l -0.29,0.23 a 1.18,1.18 0 0 0 -0.22,0.28 v 0.08 a 2.07,2.07 0 0 0 -0.21,0.57 2.42,2.42 0 0 0 -0.06,0.46 c 0,0.11 0,0.21 0,0.32 0,0.11 0,0.2 0.05,0.3 0.05,0.1 0,0 0,0 0,0 0,0.09 0,0.13 a 1.35,1.35 0 0 0 0.05,0.29 1.78,1.78 0 0 0 0.39,0.66 1.19,1.19 0 0 0 0.42,0.35 1.93,1.93 0 0 0 0.77,0.21 1,1 0 0 0 0.73,-0.28 l 0.17,-0.09 a 1.78,1.78 0 0 0 0.59,-0.59 0.41,0.41 0 0 0 0.07,-0.11 0.14,0.14 0 0 1 0,-0.06 1.92,1.92 0 0 0 0.18,-0.22 0.75,0.75 0 0 0 0.07,-0.12 2.5,2.5 0 0 0 0.15,-0.38 2.09,2.09 0 0 0 0,-0.43 1.87,1.87 0 0 0 -0.21,-0.8 1.76,1.76 0 0 0 -0.31,-0.55 z"
     id="path3"
     style="fill:#ffffff" />
</svg>
