<svg xmlns="http://www.w3.org/2000/svg" xmlns:xlink="http://www.w3.org/1999/xlink" version="1.1" x="0px" y="0px" viewBox="0 0 90 112.5" enable-background="new 0 0 90 90" xml:space="preserve"><path d="M82,70.7l-3-21C77.2,38.6,71.2,33,61,33H47v-2c0-0.5,0.2-1,0.6-1.4C48,29.2,48.5,29,49,29c0,0,0,0,0,0l2,0c0,0,0,0,0,0  c3.3,0,6-2.7,6-6c0-3.3-2.7-6-6-6H39c-1.1,0-2-0.9-2-2c0-1.1,0.9-2,2-2c0,0,0,0,0,0c1.1,0,2-0.9,2-2c0-1.1-0.9-2-2-2c0,0,0,0,0,0  c-3.3,0-6,2.7-6,6c0,3.3,2.7,6,6,6h12c1.1,0,2,0.9,2,2c0,1.1-0.9,2-2,2c0,0,0,0,0,0l-2,0c0,0,0,0,0,0c-3.3,0-6,2.7-6,6v2H29  c-10.2,0-16.2,5.6-18,16.7l-3,21c0,0.1,0,0.2,0,0.3c0,5,2.8,10,9,10c5.8,0,8.2-4.2,9.8-8.2l2.5-5.8h31.4l2.5,5.7  c1.6,4.1,4.1,8.3,9.9,8.3c6.2,0,9-5,9-10C82,70.9,82,70.8,82,70.7z M73,77c-2.5,0-4.2-0.9-6.2-5.8l-3-7c-0.3-0.7-1-1.2-1.8-1.2H28  c-0.8,0-1.5,0.5-1.8,1.2l-3,7C21.2,76.1,19.5,77,17,77c-4.4,0-5-4-5-5.9l3-20.8C16.4,41.1,20.8,37,29,37h32c8.2,0,12.6,4.1,14,13.3  l3,20.9C78,73,77.4,77,73,77z"/><path d="M37,48h-5v-5c0-1.1-0.9-2-2-2s-2,0.9-2,2v5h-5c-1.1,0-2,0.9-2,2s0.9,2,2,2h5v5c0,1.1,0.9,2,2,2s2-0.9,2-2v-5h5  c1.1,0,2-0.9,2-2S38.1,48,37,48z"/><path d="M59,47c-1.7,0-3-1.3-3-3c0-1.7,1.3-3,3-3c1.7,0,3,1.3,3,3C62,45.7,60.7,47,59,47z"/><path d="M59,59c-1.7,0-3-1.3-3-3c0-1.7,1.3-3,3-3c1.7,0,3,1.3,3,3C62,57.7,60.7,59,59,59z"/><path d="M53,53c-1.7,0-3-1.3-3-3c0-1.7,1.3-3,3-3c1.7,0,3,1.3,3,3C56,51.7,54.7,53,53,53z"/><path d="M65,53c-1.7,0-3-1.3-3-3c0-1.7,1.3-3,3-3c1.7,0,3,1.3,3,3C68,51.7,66.7,53,65,53z"/><text x="0" y="105" fill="#000000" font-size="5px" font-weight="bold" font-family="'Helvetica Neue', Helvetica, Arial-Unicode, Arial, Sans-serif">Created by Miguel Rocha</text><text x="0" y="110" fill="#000000" font-size="5px" font-weight="bold" font-family="'Helvetica Neue', Helvetica, Arial-Unicode, Arial, Sans-serif">from the Noun Project</text></svg>